<svg xmlns="http://www.w3.org/2000/svg" xmlns:xlink="http://www.w3.org/1999/xlink" width="138" height="160" version="1.1" viewBox="0 0 138 160"><title>Group 7</title><desc>Created with Sketch.</desc><defs><linearGradient id="linearGradient-1" x1="120.303%" x2="-33.984%" y1="119.82%" y2="-35.097%"><stop offset="0%" stop-color="#5040FF"/><stop offset="100%" stop-color="#52E4FF"/></linearGradient><linearGradient id="linearGradient-2" x1="566.797%" x2="566.797%" y1="2326.953%" y2="-1721.875%"><stop offset="0%" stop-color="#5040FF"/><stop offset="100%" stop-color="#52E4FF"/></linearGradient><linearGradient id="linearGradient-3" x1="12.337%" x2="94.941%" y1="-9.644%" y2="95.881%"><stop offset="0%" stop-color="#52E5FF"/><stop offset="100%" stop-color="#5041FF"/></linearGradient></defs><g id="Page-1" fill="none" fill-rule="evenodd" stroke="none" stroke-width="1"><g id="Color-Variation" transform="translate(-991.000000, -2657.000000)"><g id="Get-Started-group" transform="translate(294.000000, 2557.000000)"><g id="Icons" transform="translate(0.000000, 93.000000)"><g id="ICONS-V1" transform="translate(247.000000, 10.000000)"><g id="Group-7" transform="translate(452.000000, 0.000000)"><g id="BookV2" stroke-linecap="round" stroke-linejoin="round" stroke-width="3.5" transform="translate(35.000000, 43.000000)"><path id="Stroke-1" stroke="url(#linearGradient-1)" d="M50.8571429,73 L14,73 L14,0 L50.8571429,0 C54.2495357,0 57,2.84223913 57,6.34782609 L57,66.6521739 C57,70.1577609 54.2495357,73 50.8571429,73 Z"/><path id="Stroke-3" stroke="url(#linearGradient-1)" d="M13,73 L9.14285714,73 C6.30271429,73 4,70.1577609 4,66.6521739 L4,6.34782609 C4,2.84223913 6.30271429,0 9.14285714,0 L13,0"/><path id="Stroke-5" stroke="url(#linearGradient-2)" d="M0,18 L6,18"/><path id="Stroke-7" stroke="url(#linearGradient-2)" d="M0,36 L6,36"/><path id="Stroke-9" stroke="url(#linearGradient-2)" d="M0,54 L6,54"/><path id="Stroke-11" stroke="url(#linearGradient-2)" d="M23,26 L48,26"/><path id="Stroke-13" stroke="url(#linearGradient-1)" d="M23,36 L48,36"/><path id="Stroke-15" stroke="url(#linearGradient-1)" d="M23,46 L48,46"/></g><polygon id="Polygon-7-Copy" stroke="url(#linearGradient-3)" stroke-width="4" points="66.684 0 133.368 38.5 133.368 115.5 66.684 154 0 115.5 0 38.5"/></g></g></g></g></g></g></svg>