<svg xmlns="http://www.w3.org/2000/svg" xmlns:xlink="http://www.w3.org/1999/xlink" width="251" height="120" version="1.1" viewBox="0 0 251 120"><title>Group 2</title><desc>Created with Sketch.</desc><g id="Page-1" fill="none" fill-rule="evenodd" stroke="none" stroke-width="1"><g id="Color-Variation" transform="translate(-312.000000, -1435.000000)"><g id="Secure-/-Distributed" transform="translate(310.000000, 1433.000000)"><g id="Secure" transform="translate(2.000000, 0.000000)"><g id="Group-2" transform="translate(0.000000, 2.000000)"><polygon id="Polygon-Copy-5" fill="#5284FF" points="51.713 1 103.427 30.567 103.427 89.702 51.713 119.27 0 89.702 0 30.567"/><polygon id="Polygon-Copy-6" fill="#5284FF" points="198.713 1 250.427 30.567 250.427 89.702 198.713 119.27 147 89.702 147 30.567"/><circle id="Oval" cx="122.5" cy="60.5" r="55.5" stroke="#3252C8" stroke-width="8"/><path id="Polygon-Copy-5" stroke="#5284FF" stroke-width="8" d="M51.7134328,4.6076551 L4,31.8881143 L4,86.3818244 L51.7134328,113.662284 L99.4268657,86.3818244 L99.4268657,31.8881143 L51.7134328,4.6076551 Z M198.713529,4.6076551 L151.000096,31.8881143 L151.000096,86.3818244 L198.713529,113.662284 L246.426962,86.3818244 L246.426962,31.8881143 L198.713529,4.6076551 Z"/></g></g></g></g></g></svg>